<svg xmlns="http://www.w3.org/2000/svg" viewBox="0 0 16 25.6"><defs><style>.cls-1{fill:#d6ae7f;fill-rule:evenodd;}</style></defs><g id="Layer_2" data-name="Layer 2"><g id="Layer_1-2" data-name="Layer 1"><path class="cls-1" d="M16,2.4V23.2a2.4,2.4,0,0,1-2.4,2.4H2.4A2.41,2.41,0,0,1,0,23.2V2.4A2.41,2.41,0,0,1,2.4,0H13.6A2.4,2.4,0,0,1,16,2.4Zm-6.2,20H6.2a.6.6,0,0,1-.6-.6v-.4a.6.6,0,0,1,.6-.6H9.8a.6.6,0,0,1,.6.6v.4A.6.6,0,0,1,9.8,22.4ZM13.6,1.6a.8.8,0,0,1,.8.8V23.2a.8.8,0,0,1-.8.8H2.4a.8.8,0,0,1-.8-.8V2.4a.8.8,0,0,1,.8-.8Z"/></g></g></svg>