<svg xmlns="http://www.w3.org/2000/svg" viewBox="0 0 22.4 22.4"><defs><style>.cls-1{fill:#d6ae7f;fill-rule:evenodd;}</style></defs><g id="Layer_2" data-name="Layer 2"><g id="Layer_1-2" data-name="Layer 1"><path class="cls-1" d="M2.4,0H20a2.4,2.4,0,0,1,2.4,2.4V20A2.39,2.39,0,0,1,20,22.4H2.4A2.4,2.4,0,0,1,0,20V2.4A2.41,2.41,0,0,1,2.4,0ZM17.57,8.36c0-.13,0-.28,0-.42a7.36,7.36,0,0,0,1.64-1.7,6.69,6.69,0,0,1-1.89.51A3.33,3.33,0,0,0,18.75,5a6.79,6.79,0,0,1-2.08.79,3.24,3.24,0,0,0-2.4-1,3.29,3.29,0,0,0-3.2,4A9.28,9.28,0,0,1,4.32,5.3,3.16,3.16,0,0,0,3.87,7,3.3,3.3,0,0,0,5.33,9.69a3.35,3.35,0,0,1-1.48-.42v0a3.28,3.28,0,0,0,2.62,3.22A3.7,3.7,0,0,1,5,12.59a3.28,3.28,0,0,0,3.07,2.27A6.57,6.57,0,0,1,4,16.26c-.27,0-.53,0-.79,0a9.29,9.29,0,0,0,5,1.46A9.27,9.27,0,0,0,17.57,8.36Z"/></g></g></svg>