<svg xmlns="http://www.w3.org/2000/svg" viewBox="0 0 21.99 21.51"><defs><style>.cls-1{fill:#d6ae7f;fill-rule:evenodd;}</style></defs><g id="Layer_2" data-name="Layer 2"><g id="Layer_1-2" data-name="Layer 1"><path class="cls-1" d="M16.3,14.81l5.54,5.42a.51.51,0,0,1,0,.72l-.43.41a.52.52,0,0,1-.73,0l-5.54-5.42a.51.51,0,0,1-.15-.35v-.43a9,9,0,0,1-6.06,2.32A8.84,8.84,0,0,1,0,8.74,8.84,8.84,0,0,1,8.93,0a8.84,8.84,0,0,1,8.94,8.74,8.62,8.62,0,0,1-2.38,5.93h.44A.55.55,0,0,1,16.3,14.81ZM1.37,8.74a7.47,7.47,0,0,0,7.56,7.39,7.47,7.47,0,0,0,7.56-7.39,7.48,7.48,0,0,0-7.56-7.4A7.48,7.48,0,0,0,1.37,8.74Z"/></g></g></svg>