<svg xmlns="http://www.w3.org/2000/svg" viewBox="0 0 20.48 20.48"><defs><style>.cls-1{fill:#d6ae7f;fill-rule:evenodd;}</style></defs><g id="Layer_2" data-name="Layer 2"><g id="Layer_1-2" data-name="Layer 1"><path class="cls-1" d="M17.78.14a1.75,1.75,0,0,1,.7-.14,2,2,0,0,1,1.86,2.7L12.66,19.33A1.94,1.94,0,0,1,9,18.56v-7h-7a1.94,1.94,0,0,1-.77-3.71ZM11.5,18.79,19.18,2.16a.59.59,0,0,0-.1-.52.79.79,0,0,0-.6-.36.52.52,0,0,0-.21,0L1.69,9a.62.62,0,0,0-.39.76.6.6,0,0,0,.62.51h8.31v8.31a.66.66,0,0,0,1.27.23Z"/></g></g></svg>