<svg xmlns="http://www.w3.org/2000/svg" viewBox="0 0 22.4 22.4"><defs><style>.cls-1{fill:#d6ae7f;fill-rule:evenodd;}</style></defs><g id="Layer_2" data-name="Layer 2"><g id="Layer_1-2" data-name="Layer 1"><path class="cls-1" d="M20,0H2.4A2.39,2.39,0,0,0,0,2.4V20a2.39,2.39,0,0,0,2.4,2.4H20A2.39,2.39,0,0,0,22.4,20V2.4A2.39,2.39,0,0,0,20,0ZM15.91,5a2.75,2.75,0,0,1,1.53,1.52h0a14.23,14.23,0,0,1,.32,4.15h0v1.14h0a14.17,14.17,0,0,1-.32,4.15,2.77,2.77,0,0,1-1.52,1.52,14.2,14.2,0,0,1-4.15.32H10.64a14.92,14.92,0,0,1-4.15-.32A2.7,2.7,0,0,1,5,15.92a14.67,14.67,0,0,1-.33-4.17V10.64A15,15,0,0,1,5,6.48,2.77,2.77,0,0,1,6.48,5a14.2,14.2,0,0,1,4.15-.32h1.13A14.52,14.52,0,0,1,15.91,5ZM8.53,11.2a2.67,2.67,0,1,1,2.67,2.67A2.68,2.68,0,0,1,8.53,11.2Zm2.67,4.1a4.1,4.1,0,1,1,2.9-1.2A4.11,4.11,0,0,1,11.2,15.3Zm3.38-8a1,1,0,0,0,.89.6h0A1,1,0,0,0,15.83,6a1,1,0,0,0-1.25,1.25Zm3.27,10.56a4.71,4.71,0,0,0,1.29-3.35c.08-1.32.08-5.28,0-6.59a4.78,4.78,0,0,0-1.29-3.36A4.8,4.8,0,0,0,14.5,3.26c-1.32-.07-5.28-.07-6.6,0A4.77,4.77,0,0,0,4.55,4.55,4.71,4.71,0,0,0,3.26,7.9c-.08,1.32-.08,5.28,0,6.6a4.71,4.71,0,0,0,1.29,3.35A4.77,4.77,0,0,0,7.9,19.14c1.32.08,5.28.08,6.6,0A4.76,4.76,0,0,0,17.85,17.85Z"/></g></g></svg>